<mxfile host="app.diagrams.net" agent="Mozilla/5.0 (Macintosh; Intel Mac OS X 10_15_7) AppleWebKit/537.36 (KHTML, like Gecko) Chrome/130.0.0.0 Safari/537.36" version="24.8.6">
  <diagram name="Page-1" id="L79Bwdi13p1Nh2tMwl0b">
    <mxGraphModel dx="1306" dy="658" grid="1" gridSize="10" guides="1" tooltips="1" connect="1" arrows="1" fold="1" page="1" pageScale="1" pageWidth="850" pageHeight="1100" math="0" shadow="0">
      <root>
        <mxCell id="0" />
        <mxCell id="1" parent="0" />
        <mxCell id="QGYncYmHhsHyFiSlqadZ-6" style="edgeStyle=orthogonalEdgeStyle;rounded=0;orthogonalLoop=1;jettySize=auto;html=1;exitX=1;exitY=0.5;exitDx=0;exitDy=0;exitPerimeter=0;" edge="1" parent="1" source="QGYncYmHhsHyFiSlqadZ-1" target="QGYncYmHhsHyFiSlqadZ-2">
          <mxGeometry relative="1" as="geometry" />
        </mxCell>
        <mxCell id="QGYncYmHhsHyFiSlqadZ-1" value="Route 53&lt;div&gt;https://viniciusmarson.com&lt;/div&gt;" style="outlineConnect=0;dashed=0;verticalLabelPosition=bottom;verticalAlign=top;align=center;html=1;shape=mxgraph.aws3.route_53;fillColor=#F58536;gradientColor=none;" vertex="1" parent="1">
          <mxGeometry x="170" y="213.75" width="70.5" height="85.5" as="geometry" />
        </mxCell>
        <mxCell id="QGYncYmHhsHyFiSlqadZ-7" style="edgeStyle=orthogonalEdgeStyle;rounded=0;orthogonalLoop=1;jettySize=auto;html=1;exitX=1;exitY=0.5;exitDx=0;exitDy=0;exitPerimeter=0;" edge="1" parent="1" source="QGYncYmHhsHyFiSlqadZ-2" target="QGYncYmHhsHyFiSlqadZ-4">
          <mxGeometry relative="1" as="geometry" />
        </mxCell>
        <mxCell id="QGYncYmHhsHyFiSlqadZ-2" value="Cloud Front" style="outlineConnect=0;dashed=0;verticalLabelPosition=bottom;verticalAlign=top;align=center;html=1;shape=mxgraph.aws3.cloudfront;fillColor=#F58536;gradientColor=none;" vertex="1" parent="1">
          <mxGeometry x="379" y="210" width="76.5" height="93" as="geometry" />
        </mxCell>
        <mxCell id="QGYncYmHhsHyFiSlqadZ-4" value="S3" style="outlineConnect=0;dashed=0;verticalLabelPosition=bottom;verticalAlign=top;align=center;html=1;shape=mxgraph.aws3.s3;fillColor=#E05243;gradientColor=none;" vertex="1" parent="1">
          <mxGeometry x="570" y="210" width="76.5" height="93" as="geometry" />
        </mxCell>
        <mxCell id="QGYncYmHhsHyFiSlqadZ-5" value="Certificate Manager" style="outlineConnect=0;dashed=0;verticalLabelPosition=bottom;verticalAlign=top;align=center;html=1;shape=mxgraph.aws3.certificate_manager;fillColor=#759C3E;gradientColor=none;" vertex="1" parent="1">
          <mxGeometry x="480" y="80" width="76.5" height="61.5" as="geometry" />
        </mxCell>
        <mxCell id="QGYncYmHhsHyFiSlqadZ-8" style="edgeStyle=orthogonalEdgeStyle;rounded=0;orthogonalLoop=1;jettySize=auto;html=1;exitX=0.5;exitY=0;exitDx=0;exitDy=0;exitPerimeter=0;entryX=0;entryY=0.5;entryDx=0;entryDy=0;entryPerimeter=0;" edge="1" parent="1" source="QGYncYmHhsHyFiSlqadZ-2" target="QGYncYmHhsHyFiSlqadZ-5">
          <mxGeometry relative="1" as="geometry" />
        </mxCell>
      </root>
    </mxGraphModel>
  </diagram>
</mxfile>
